<svg width="23" height="21" viewBox="0 0 23 21" fill="none" xmlns="http://www.w3.org/2000/svg">
<path d="M8.23071 20.4055C9.09312 20.4055 9.79224 19.7276 9.79224 18.8915C9.79224 18.0553 9.09312 17.3774 8.23071 17.3774C7.3683 17.3774 6.66918 18.0553 6.66918 18.8915C6.66918 19.7276 7.3683 20.4055 8.23071 20.4055Z" fill="white"/>
<path d="M17.7179 20.4055C18.5803 20.4055 19.2794 19.7276 19.2794 18.8915C19.2794 18.0553 18.5803 17.3774 17.7179 17.3774C16.8555 17.3774 16.1564 18.0553 16.1564 18.8915C16.1564 19.7276 16.8555 20.4055 17.7179 20.4055Z" fill="white"/>
<path d="M21.9375 2.47471C21.8729 2.39752 21.7915 2.33516 21.6991 2.29211C21.6067 2.24906 21.5056 2.2264 21.4031 2.22574H9.97231C9.51254 2.22574 9.18817 2.67657 9.3343 3.1125C9.42622 3.38672 9.68309 3.57154 9.97231 3.57154H20.494L18.6409 10.6485H8.23071L5.05906 1.90948C5.02475 1.80616 4.96518 1.71242 4.88542 1.63626C4.80566 1.5601 4.70808 1.50378 4.60101 1.47209L1.75555 0.624242C1.66805 0.598174 1.57612 0.589069 1.485 0.597449C1.39388 0.605829 1.30535 0.63153 1.22447 0.673082C1.06113 0.757 0.938858 0.900394 0.884559 1.07172C0.83026 1.24304 0.84838 1.42827 0.934932 1.58664C1.02148 1.74501 1.16938 1.86356 1.34608 1.91621L3.83759 2.6564L7.02312 11.4156L5.88494 12.3172L5.79472 12.4047C5.51318 12.7193 5.3536 13.1192 5.34347 13.5356C5.33333 13.952 5.47328 14.3587 5.7392 14.6858C5.92836 14.9089 6.16873 15.0859 6.44108 15.2028C6.71343 15.3196 7.01021 15.373 7.30767 15.3587H18.8908C19.0749 15.3587 19.2514 15.2879 19.3815 15.1617C19.5117 15.0355 19.5848 14.8643 19.5848 14.6858C19.5848 14.5074 19.5117 14.3362 19.3815 14.21C19.2514 14.0838 19.0749 14.013 18.8908 14.013H7.19663C7.11671 14.0103 7.03885 13.9877 6.97056 13.9474C6.90227 13.907 6.84587 13.8503 6.8068 13.7827C6.76772 13.715 6.74731 13.6387 6.74751 13.5612C6.74772 13.4837 6.76855 13.4075 6.80798 13.3401L8.48056 11.9943H19.1962C19.3566 11.9981 19.5134 11.9478 19.6399 11.8521C19.7665 11.7564 19.8549 11.6212 19.8902 11.4694L22.0902 3.04668C22.1113 2.94636 22.1085 2.8427 22.0821 2.74358C22.0556 2.64446 22.0062 2.55251 21.9375 2.47471Z" fill="white"/>
<path fill-rule="evenodd" clip-rule="evenodd" d="M21.4031 2.22574C21.5056 2.2264 21.6067 2.24906 21.6991 2.29211C21.7915 2.33516 21.8729 2.39752 21.9375 2.47471C22.0062 2.55251 22.0556 2.64446 22.0821 2.74358C22.1085 2.8427 22.1113 2.94636 22.0902 3.04668L19.8902 11.4694C19.8549 11.6212 19.7665 11.7564 19.6399 11.8521C19.5134 11.9478 19.3566 11.9981 19.1962 11.9943H8.48056L6.80798 13.3401C6.76855 13.4075 6.74772 13.4837 6.74751 13.5612C6.74731 13.6387 6.76772 13.715 6.8068 13.7827C6.84587 13.8503 6.90227 13.907 6.97056 13.9474C7.03885 13.9877 7.11671 14.0103 7.19663 14.013H18.8908C19.0749 14.013 19.2514 14.0838 19.3815 14.21C19.5117 14.3362 19.5848 14.5074 19.5848 14.6858C19.5848 14.8643 19.5117 15.0355 19.3815 15.1617C19.2514 15.2879 19.0749 15.3587 18.8908 15.3587H7.30767C7.01021 15.373 6.71343 15.3196 6.44108 15.2028C6.16873 15.0859 5.92836 14.9089 5.7392 14.6858C5.47328 14.3587 5.33333 13.952 5.34347 13.5356C5.3536 13.1192 5.51318 12.7193 5.79472 12.4047L5.88494 12.3172L7.02312 11.4156L3.83759 2.6564L1.34608 1.91621C1.16938 1.86356 1.02148 1.74501 0.934932 1.58664C0.84838 1.42827 0.83026 1.24304 0.884559 1.07172C0.938858 0.900394 1.06113 0.757 1.22447 0.673082C1.30535 0.63153 1.39388 0.605829 1.485 0.597449C1.57612 0.589069 1.66805 0.598174 1.75555 0.624242L4.60101 1.47209C4.70808 1.50378 4.80566 1.5601 4.88542 1.63626C4.96518 1.71242 5.02475 1.80616 5.05906 1.90948L8.23071 10.6485H18.6409L20.494 3.57154H9.97231C9.68309 3.57154 9.42622 3.38672 9.3343 3.1125C9.18817 2.67657 9.51254 2.22574 9.97231 2.22574H21.4031ZM20.1045 3.87434H9.96328C9.54391 3.87434 9.17145 3.60636 9.03817 3.20874C8.82629 2.57664 9.29662 1.92294 9.96328 1.92294H21.4052C21.5538 1.9239 21.7004 1.95676 21.8344 2.01918C21.9671 2.08103 22.0842 2.17037 22.1775 2.28088C22.2756 2.39304 22.3464 2.52528 22.3844 2.66771C22.4228 2.81143 22.4268 2.96174 22.3962 3.1072L22.3949 3.11356L20.1948 11.5359M20.1045 3.87434L18.3905 10.3457H8.45959L5.35687 1.81828L5.35634 1.81668C5.3066 1.66687 5.22021 1.53095 5.10456 1.42052C4.98899 1.31016 4.84762 1.22853 4.69249 1.18257L1.84729 0.334797C1.72059 0.297049 1.58746 0.283863 1.45551 0.295998C1.32356 0.308133 1.19536 0.345348 1.07824 0.405519C0.841713 0.527038 0.664658 0.734683 0.586029 0.982774C0.507401 1.23087 0.533639 1.49908 0.658972 1.72842C0.784306 1.95775 0.998467 2.12942 1.25434 2.20565L3.58933 2.89934L6.66143 11.3111L5.67519 12.0924L5.56607 12.1982L5.55884 12.2063C5.22967 12.5741 5.0431 13.0416 5.03125 13.5285C5.0194 14.0153 5.18302 14.4909 5.49392 14.8733L5.49797 14.8782C5.71809 15.1377 5.99779 15.3437 6.31471 15.4797C6.62918 15.6146 6.97164 15.6768 7.31509 15.6616H18.8908C19.1577 15.6616 19.4136 15.5588 19.6024 15.3758C19.7911 15.1928 19.8971 14.9446 19.8971 14.6858C19.8971 14.4271 19.7911 14.1789 19.6024 13.9959C19.4136 13.8129 19.1577 13.7101 18.8908 13.7101H7.2034C7.17853 13.7087 7.15437 13.7014 7.13306 13.6888C7.11064 13.6755 7.09212 13.6569 7.07929 13.6347C7.06646 13.6125 7.05975 13.5874 7.05982 13.562C7.05985 13.5503 7.06131 13.5387 7.06413 13.5274L8.59327 12.2971H19.1927C19.4239 12.3016 19.6496 12.2288 19.832 12.0909C20.0154 11.9522 20.1437 11.7559 20.1948 11.5359M10.1046 18.8915C10.1046 19.8949 9.26561 20.7083 8.23071 20.7083C7.19582 20.7083 6.35687 19.8949 6.35687 18.8915C6.35687 17.8881 7.19582 17.0746 8.23071 17.0746C9.26561 17.0746 10.1046 17.8881 10.1046 18.8915ZM19.5917 18.8915C19.5917 19.8949 18.7528 20.7083 17.7179 20.7083C16.683 20.7083 15.8441 19.8949 15.8441 18.8915C15.8441 17.8881 16.683 17.0746 17.7179 17.0746C18.7528 17.0746 19.5917 17.8881 19.5917 18.8915ZM8.23071 20.4055C9.09312 20.4055 9.79224 19.7276 9.79224 18.8915C9.79224 18.0553 9.09312 17.3774 8.23071 17.3774C7.3683 17.3774 6.66918 18.0553 6.66918 18.8915C6.66918 19.7276 7.3683 20.4055 8.23071 20.4055ZM17.7179 20.4055C18.5803 20.4055 19.2794 19.7276 19.2794 18.8915C19.2794 18.0553 18.5803 17.3774 17.7179 17.3774C16.8555 17.3774 16.1564 18.0553 16.1564 18.8915C16.1564 19.7276 16.8555 20.4055 17.7179 20.4055Z" fill="white"/>
</svg>
