<svg width="21" height="20" viewBox="0 0 21 20" fill="none" xmlns="http://www.w3.org/2000/svg">
<path d="M7.38164 19.6535C8.20955 19.6535 8.88071 19.0102 8.88071 18.2166C8.88071 17.423 8.20955 16.7797 7.38164 16.7797C6.55372 16.7797 5.88257 17.423 5.88257 18.2166C5.88257 19.0102 6.55372 19.6535 7.38164 19.6535Z" fill="#838688"/>
<path d="M16.4893 19.6535C17.3173 19.6535 17.9884 19.0102 17.9884 18.2166C17.9884 17.423 17.3173 16.7797 16.4893 16.7797C15.6614 16.7797 14.9903 17.423 14.9903 18.2166C14.9903 19.0102 15.6614 19.6535 16.4893 19.6535Z" fill="#838688"/>
<path d="M20.5402 2.63582C20.4782 2.56256 20.4 2.50338 20.3113 2.46252C20.2226 2.42167 20.1256 2.40015 20.0272 2.39953H9.04661C8.60932 2.39953 8.30138 2.8291 8.44179 3.24323V3.24323C8.52967 3.50241 8.77293 3.67679 9.04661 3.67679H19.1544L17.3755 10.3933H7.38164L4.33685 2.09937C4.30392 2.00131 4.24673 1.91235 4.17016 1.84007C4.09359 1.76778 3.99992 1.71433 3.89713 1.68426L1.16548 0.879582C1.08149 0.854842 0.993233 0.846201 0.905756 0.854154C0.818278 0.862107 0.733291 0.886499 0.655647 0.925935C0.498839 1.00558 0.38146 1.14167 0.329333 1.30427C0.277206 1.46687 0.294601 1.64266 0.377691 1.79297C0.46078 1.94328 0.602759 2.05579 0.772393 2.10576L3.16425 2.80825L6.22236 11.1214L5.1297 11.9772L5.04308 12.0602C4.77281 12.3587 4.61961 12.7383 4.60988 13.1335C4.60016 13.5286 4.7345 13.9147 4.98978 14.2251C5.17138 14.4368 5.40213 14.6048 5.66359 14.7157C5.92505 14.8266 6.20996 14.8773 6.49552 14.8638H17.6153C17.792 14.8638 17.9615 14.7965 18.0864 14.6767C18.2114 14.557 18.2816 14.3945 18.2816 14.2251C18.2816 14.0558 18.2114 13.8933 18.0864 13.7736C17.9615 13.6538 17.792 13.5865 17.6153 13.5865H6.38892C6.3122 13.584 6.23745 13.5626 6.17189 13.5243C6.10634 13.486 6.05219 13.4321 6.01468 13.3679C5.97717 13.3037 5.95757 13.2313 5.95777 13.1578C5.95797 13.0842 5.97796 13.0119 6.01582 12.9479L7.62149 11.6706H17.9085C18.0625 11.6742 18.213 11.6266 18.3345 11.5357C18.456 11.4449 18.5409 11.3165 18.5747 11.1725L20.6867 3.17866C20.707 3.08345 20.7043 2.98507 20.6789 2.891C20.6535 2.79693 20.6061 2.70965 20.5402 2.63582Z" fill="#838688"/>
<path fill-rule="evenodd" clip-rule="evenodd" d="M20.0272 2.39953C20.1256 2.40015 20.2226 2.42167 20.3113 2.46252C20.4 2.50338 20.4782 2.56256 20.5402 2.63582C20.6061 2.70965 20.6535 2.79693 20.6789 2.891C20.7043 2.98507 20.707 3.08345 20.6867 3.17866L18.5747 11.1725C18.5409 11.3165 18.456 11.4449 18.3345 11.5357C18.213 11.6266 18.0625 11.6742 17.9085 11.6706H7.62149L6.01582 12.9479C5.97796 13.0119 5.95797 13.0842 5.95777 13.1578C5.95757 13.2313 5.97717 13.3037 6.01468 13.3679C6.05219 13.4321 6.10634 13.486 6.17189 13.5243C6.23745 13.5626 6.3122 13.584 6.38892 13.5865H17.6153C17.792 13.5865 17.9615 13.6538 18.0864 13.7736C18.2114 13.8933 18.2816 14.0558 18.2816 14.2251C18.2816 14.3945 18.2114 14.557 18.0864 14.6767C17.9615 14.7965 17.792 14.8638 17.6153 14.8638H6.49552C6.20996 14.8773 5.92505 14.8266 5.66359 14.7157C5.40213 14.6048 5.17138 14.4368 4.98978 14.2251C4.7345 13.9147 4.60016 13.5286 4.60988 13.1335C4.61961 12.7383 4.77281 12.3587 5.04308 12.0602L5.1297 11.9772L6.22236 11.1214L3.16425 2.80825L0.772393 2.10576C0.602759 2.05579 0.46078 1.94328 0.377691 1.79297C0.294601 1.64266 0.277206 1.46687 0.329333 1.30427C0.38146 1.14167 0.498839 1.00558 0.655647 0.925935C0.733291 0.886499 0.818278 0.862107 0.905756 0.854154C0.993233 0.846201 1.08149 0.854842 1.16548 0.879582L3.89713 1.68426C3.99992 1.71433 4.09359 1.76778 4.17016 1.84007C4.24673 1.91235 4.30392 2.00131 4.33685 2.09937L7.38164 10.3933H17.3755L19.1544 3.67679H9.04661C8.77293 3.67679 8.52967 3.50241 8.44179 3.24323V3.24323C8.30138 2.8291 8.60932 2.39953 9.04661 2.39953H20.0272ZM18.7805 3.96418H9.03481C8.63798 3.96418 8.28525 3.71133 8.15783 3.33551V3.33551C7.95423 2.73502 8.40074 2.11214 9.03481 2.11214H20.0291C20.1718 2.11305 20.3125 2.14425 20.4412 2.20349C20.5686 2.26219 20.681 2.34698 20.7705 2.45186C20.8648 2.55831 20.9327 2.68381 20.9692 2.81899C21.006 2.95539 21.0099 3.09805 20.9805 3.2361L20.9792 3.24214L18.8672 11.2356M18.7805 3.96418L17.135 10.106H7.60136L4.62275 2.01282L4.62224 2.0113C4.57449 1.86912 4.49156 1.74012 4.38054 1.63531C4.26959 1.53057 4.13387 1.4531 3.98495 1.40948L1.25356 0.604877C1.13193 0.56905 1.00412 0.556537 0.877446 0.568053C0.750772 0.57957 0.627705 0.61489 0.515271 0.671997C0.288201 0.787328 0.118228 0.9844 0.0427445 1.21986C-0.0327391 1.45532 -0.00755033 1.70987 0.11277 1.92753C0.23309 2.14518 0.438685 2.30811 0.684326 2.38046L2.92591 3.03883L5.87513 11.0222L4.92834 11.7637L4.82359 11.8641L4.81664 11.8718C4.50064 12.2209 4.32153 12.6647 4.31015 13.1267C4.29878 13.5887 4.45585 14.0401 4.75432 14.403L4.75821 14.4077C4.96952 14.654 5.23803 14.8495 5.54228 14.9785C5.84417 15.1066 6.17293 15.1656 6.50264 15.1512H17.6153C17.8715 15.1512 18.1172 15.0536 18.2984 14.8799C18.4796 14.7063 18.5814 14.4707 18.5814 14.2251C18.5814 13.9795 18.4796 13.744 18.2984 13.5703C18.1172 13.3967 17.8715 13.2991 17.6153 13.2991H6.39542C6.37154 13.2978 6.34835 13.2908 6.32789 13.2789C6.30637 13.2663 6.28859 13.2486 6.27627 13.2275C6.26395 13.2064 6.25752 13.1827 6.25758 13.1585C6.25761 13.1474 6.25901 13.1364 6.26172 13.1257L7.72969 11.958H17.9051C18.1271 11.9623 18.3438 11.8932 18.5189 11.7623C18.695 11.6307 18.8181 11.4444 18.8672 11.2356M9.18053 18.2166C9.18053 19.1689 8.37514 19.9409 7.38164 19.9409C6.38814 19.9409 5.58275 19.1689 5.58275 18.2166C5.58275 17.2643 6.38814 16.4923 7.38164 16.4923C8.37514 16.4923 9.18053 17.2643 9.18053 18.2166ZM18.2882 18.2166C18.2882 19.1689 17.4828 19.9409 16.4893 19.9409C15.4958 19.9409 14.6905 19.1689 14.6905 18.2166C14.6905 17.2643 15.4958 16.4923 16.4893 16.4923C17.4828 16.4923 18.2882 17.2643 18.2882 18.2166ZM7.38164 19.6535C8.20955 19.6535 8.88071 19.0102 8.88071 18.2166C8.88071 17.423 8.20955 16.7797 7.38164 16.7797C6.55372 16.7797 5.88257 17.423 5.88257 18.2166C5.88257 19.0102 6.55372 19.6535 7.38164 19.6535ZM16.4893 19.6535C17.3173 19.6535 17.9884 19.0102 17.9884 18.2166C17.9884 17.423 17.3173 16.7797 16.4893 16.7797C15.6614 16.7797 14.9903 17.423 14.9903 18.2166C14.9903 19.0102 15.6614 19.6535 16.4893 19.6535Z" fill="#838688"/>
</svg>
