<svg width="17" height="20" viewBox="0 0 17 20" fill="none" xmlns="http://www.w3.org/2000/svg">
<path d="M1 10.2524C0.734784 10.2524 0.48043 10.3545 0.292893 10.5362C0.105357 10.7179 0 10.9643 0 11.2213V18.9721C0 19.229 0.105357 19.4754 0.292893 19.6571C0.48043 19.8388 0.734784 19.9409 1 19.9409C1.26522 19.9409 1.51957 19.8388 1.70711 19.6571C1.89464 19.4754 2 19.229 2 18.9721V11.2213C2 10.9643 1.89464 10.7179 1.70711 10.5362C1.51957 10.3545 1.26522 10.2524 1 10.2524ZM6 0.563904C5.73478 0.563904 5.48043 0.665979 5.29289 0.847673C5.10536 1.02937 5 1.2758 5 1.53275V18.9721C5 19.229 5.10536 19.4754 5.29289 19.6571C5.48043 19.8388 5.73478 19.9409 6 19.9409C6.26522 19.9409 6.51957 19.8388 6.70711 19.6571C6.89464 19.4754 7 19.229 7 18.9721V1.53275C7 1.2758 6.89464 1.02937 6.70711 0.847673C6.51957 0.665979 6.26522 0.563904 6 0.563904ZM16 14.1278C15.7348 14.1278 15.4804 14.2299 15.2929 14.4116C15.1054 14.5933 15 14.8397 15 15.0967V18.9721C15 19.229 15.1054 19.4754 15.2929 19.6571C15.4804 19.8388 15.7348 19.9409 16 19.9409C16.2652 19.9409 16.5196 19.8388 16.7071 19.6571C16.8946 19.4754 17 19.229 17 18.9721V15.0967C17 14.8397 16.8946 14.5933 16.7071 14.4116C16.5196 14.2299 16.2652 14.1278 16 14.1278ZM11 6.377C10.7348 6.377 10.4804 6.47908 10.2929 6.66077C10.1054 6.84247 10 7.0889 10 7.34585V18.9721C10 19.229 10.1054 19.4754 10.2929 19.6571C10.4804 19.8388 10.7348 19.9409 11 19.9409C11.2652 19.9409 11.5196 19.8388 11.7071 19.6571C11.8946 19.4754 12 19.229 12 18.9721V7.34585C12 7.0889 11.8946 6.84247 11.7071 6.66077C11.5196 6.47908 11.2652 6.377 11 6.377Z" fill="#838688"/>
</svg>
