<svg width="20" height="20" viewBox="0 0 20 20" fill="none" xmlns="http://www.w3.org/2000/svg">
<path d="M19.9904 15.7801C20.0328 16.1048 19.9339 16.3871 19.694 16.627L16.8781 19.4217C16.751 19.5628 16.5852 19.6829 16.3806 19.7816C16.1759 19.8805 15.9748 19.944 15.7772 19.9722C15.7631 19.9722 15.7207 19.9758 15.6501 19.9829C15.5796 19.9899 15.4879 19.9935 15.3749 19.9935C15.1067 19.9935 14.6726 19.9476 14.0727 19.8558C13.4728 19.764 12.7389 19.5382 11.8709 19.1783C11.0027 18.8184 10.0182 18.2784 8.91722 17.5586C7.81628 16.8388 6.6447 15.8507 5.40257 14.5944C4.41452 13.6205 3.59585 12.6889 2.94655 11.7997C2.29726 10.9104 1.775 10.0882 1.37978 9.33305C0.984525 8.5779 0.688109 7.89332 0.490498 7.27931C0.292887 6.66531 0.158794 6.13599 0.0882191 5.69137C0.0176438 5.24675 -0.0105863 4.8974 0.00352876 4.64333C0.0176438 4.38926 0.0247013 4.24811 0.0247013 4.21987C0.0529315 4.02226 0.116449 3.82112 0.215255 3.61646C0.31406 3.41179 0.434038 3.24594 0.575189 3.1189L3.39114 0.302947C3.58875 0.105336 3.81459 0.00653076 4.06867 0.00653076C4.25216 0.00653076 4.41448 0.0594622 4.55563 0.165325C4.69679 0.271188 4.81676 0.401752 4.91557 0.557018L7.18104 4.85505C7.30807 5.08089 7.34336 5.32791 7.2869 5.59609C7.23044 5.86428 7.11046 6.09012 6.92696 6.27362L5.88951 7.31107C5.86128 7.3393 5.83658 7.38518 5.8154 7.44869C5.79423 7.51221 5.78364 7.56514 5.78364 7.60749C5.8401 7.9039 5.96714 8.24267 6.16475 8.62377C6.33413 8.96253 6.59526 9.3754 6.94814 9.86237C7.30101 10.3493 7.8021 10.9104 8.45139 11.5456C9.08657 12.1949 9.65117 12.6995 10.1452 13.0595C10.6391 13.4193 11.0521 13.684 11.3838 13.8534C11.7155 14.0228 11.9696 14.1251 12.146 14.1603L12.4106 14.2133C12.4388 14.2133 12.4848 14.2026 12.5483 14.1815C12.6118 14.1603 12.6576 14.1356 12.6859 14.1074L13.8927 12.8794C14.1469 12.6536 14.4432 12.5406 14.782 12.5406C15.022 12.5406 15.2125 12.5829 15.3536 12.6677H15.3748L19.461 15.0813C19.7576 15.265 19.934 15.4978 19.9904 15.7801Z" fill="#C7C7C7"/>
</svg>
