<svg width="21" height="18" viewBox="0 0 21 18" fill="none" xmlns="http://www.w3.org/2000/svg">
<path d="M19.16 2.4705C18.1 1.44082 16.6948 0.812354 15.1984 0.69864C13.7019 0.584926 12.2128 0.993457 11 1.85044C9.72769 0.933555 8.14402 0.517796 6.56795 0.686885C4.99188 0.855975 3.54047 1.59735 2.506 2.76172C1.47154 3.92609 0.930854 5.42697 0.992833 6.96211C1.05481 8.49724 1.71485 9.95261 2.84003 11.0351L9.05003 17.0614C9.57005 17.5572 10.2704 17.8351 11 17.8351C11.7296 17.8351 12.43 17.5572 12.95 17.0614L19.16 11.0351C20.3276 9.897 20.983 8.3575 20.983 6.75282C20.983 5.14814 20.3276 3.60864 19.16 2.4705V2.4705ZM17.75 9.69812L11.54 15.7147C11.4694 15.7838 11.3853 15.8387 11.2926 15.8761C11.1999 15.9136 11.1005 15.9329 11 15.9329C10.8996 15.9329 10.8002 15.9136 10.7075 15.8761C10.6148 15.8387 10.5307 15.7838 10.46 15.7147L4.25003 9.66906C3.46579 8.89238 3.02664 7.84904 3.02664 6.76251C3.02664 5.67598 3.46579 4.63264 4.25003 3.85596C5.04919 3.09152 6.127 2.66289 7.25003 2.66289C8.37306 2.66289 9.45088 3.09152 10.25 3.85596C10.343 3.94677 10.4536 4.01884 10.5755 4.06803C10.6973 4.11722 10.828 4.14254 10.96 4.14254C11.092 4.14254 11.2227 4.11722 11.3446 4.06803C11.4665 4.01884 11.5771 3.94677 11.67 3.85596C12.4692 3.09152 13.547 2.66289 14.67 2.66289C15.7931 2.66289 16.8709 3.09152 17.67 3.85596C18.4651 4.62246 18.9186 5.66014 18.9336 6.7467C18.9485 7.83326 18.5237 8.88229 17.75 9.66906V9.69812Z" fill="#838688"/>
</svg>
