<svg width="20" height="19" viewBox="0 0 20 19" fill="none" xmlns="http://www.w3.org/2000/svg">
<path d="M10 0.752045C4.48609 0.752045 0 4.7576 0 9.68088C0 14.6042 4.48609 18.6097 10 18.6097C10.9058 18.6097 11.803 18.5018 12.7527 18.2609C14.6765 17.5013 15.7263 15.6265 15.2612 13.7976L15.2808 13.7802C15.5737 13.5197 15.7056 13.0172 15.575 12.6662L15.5188 12.5136C15.387 12.1627 14.9524 11.7965 14.552 11.6983L13.0737 11.3376C12.6734 11.2406 12.1021 11.3714 11.8079 11.6341L11.2732 12.1115C9.32988 11.6417 7.80523 10.2804 7.28031 8.54518L7.815 8.06776C8.10797 7.80617 8.25445 7.29608 8.14582 6.9375L7.74293 5.61756C7.6343 5.26006 7.22168 4.87204 6.82863 4.75433L6.66016 4.70417C6.26586 4.58646 5.70312 4.70525 5.41016 4.96796L4.60938 5.68296C4.46656 5.80939 4.375 6.17345 4.375 6.17345C4.34812 8.44274 5.34426 10.6281 7.14113 12.2336C8.93312 13.8336 11.3721 14.7219 13.905 14.7023C13.9111 14.7023 14.0039 14.6837 14.1138 14.6543C14.1211 15.7519 13.4241 16.7775 12.334 17.2124C11.5784 17.3988 10.7934 17.4936 10 17.4936C5.17578 17.4936 1.25 13.9883 1.25 9.68088C1.25 5.37341 5.17578 1.86815 10 1.86815C14.8242 1.86815 18.75 5.37341 18.75 9.68088C18.75 10.9648 18.4082 12.1932 17.7332 13.33C17.572 13.6025 17.6892 13.9404 17.9932 14.0843C18.2996 14.2303 18.6768 14.1246 18.8379 13.8532C19.5984 12.5714 20 11.1283 20 9.68088C20 4.7576 15.5139 0.752045 10 0.752045Z" fill="#2B7BC6"/>
</svg>
