<svg width="28" height="26" viewBox="0 0 28 26" fill="none" xmlns="http://www.w3.org/2000/svg">
<path d="M11.8697 24.3329L12.8305 23.3861C13.1131 23.1076 13.1131 22.7177 12.8305 22.4392L3.73053 13.4722L8.96558e-05 13.4722L10.9653 24.3329C11.1914 24.5557 11.6436 24.5557 11.8697 24.3329Z" fill="#327395"/>
<path d="M12.8309 3.61391L11.8701 2.72277C11.5874 2.44429 11.1918 2.44429 10.9092 2.72277L0.000488281 13.5278L3.73092 13.5278L12.8309 4.56074C13.057 4.28226 13.057 3.89239 12.8309 3.61391Z" fill="#327395"/>
<path d="M26.1447 14.3699L26.0954 13.0603C26.0925 12.6636 25.8127 12.3838 25.416 12.3809L1.06201 12.3076L3.69982 14.9454L25.4752 15.0394C25.832 15.0024 26.1076 14.7267 26.1447 14.3699Z" fill="#327395"/>
</svg>
